<svg id="visual" viewBox="0 0 900 600" width="900" height="600" xmlns="http://www.w3.org/2000/svg" xmlns:xlink="http://www.w3.org/1999/xlink" version="1.1"><path d="M0 127L30 129C60 131 120 135 180 135C240 135 300 131 360 128C420 125 480 123 540 127C600 131 660 141 720 155C780 169 840 187 870 196L900 205L900 0L870 0C840 0 780 0 720 0C660 0 600 0 540 0C480 0 420 0 360 0C300 0 240 0 180 0C120 0 60 0 30 0L0 0Z" fill="#6198ff"></path><path d="M0 217L30 219C60 221 120 225 180 218C240 211 300 193 360 186C420 179 480 183 540 183C600 183 660 179 720 193C780 207 840 239 870 255L900 271L900 203L870 194C840 185 780 167 720 153C660 139 600 129 540 125C480 121 420 123 360 126C300 129 240 133 180 133C120 133 60 129 30 127L0 125Z" fill="#4385ff"></path><path d="M0 367L30 361C60 355 120 343 180 353C240 363 300 395 360 388C420 381 480 335 540 335C600 335 660 381 720 402C780 423 840 419 870 417L900 415L900 269L870 253C840 237 780 205 720 191C660 177 600 181 540 181C480 181 420 177 360 184C300 191 240 209 180 216C120 223 60 219 30 217L0 215Z" fill="#2071ff"></path><path d="M0 397L30 397C60 397 120 397 180 413C240 429 300 461 360 457C420 453 480 413 540 407C600 401 660 429 720 447C780 465 840 473 870 477L900 481L900 413L870 415C840 417 780 421 720 400C660 379 600 333 540 333C480 333 420 379 360 386C300 393 240 361 180 351C120 341 60 353 30 359L0 365Z" fill="#0061f1"></path><path d="M0 553L30 543C60 533 120 513 180 513C240 513 300 533 360 532C420 531 480 509 540 507C600 505 660 523 720 536C780 549 840 557 870 561L900 565L900 479L870 475C840 471 780 463 720 445C660 427 600 399 540 405C480 411 420 451 360 455C300 459 240 427 180 411C120 395 60 395 30 395L0 395Z" fill="#0056d6"></path><path d="M0 601L30 601C60 601 120 601 180 601C240 601 300 601 360 601C420 601 480 601 540 601C600 601 660 601 720 601C780 601 840 601 870 601L900 601L900 563L870 559C840 555 780 547 720 534C660 521 600 503 540 505C480 507 420 529 360 530C300 531 240 511 180 511C120 511 60 531 30 541L0 551Z" fill="#004cbb"></path></svg>